<svg width="24" height="25" viewBox="0 0 24 25" fill="none" xmlns="http://www.w3.org/2000/svg">
<path fill-rule="evenodd" clip-rule="evenodd" d="M6.22703 6.72703C6.51992 6.43414 6.99479 6.43414 7.28769 6.72703L12 11.4393L16.7123 6.72703C17.0052 6.43414 17.4801 6.43414 17.773 6.72703C18.0659 7.01992 18.0659 7.4948 17.773 7.78769L13.0607 12.5L17.773 17.2123C18.0659 17.5052 18.0659 17.9801 17.773 18.273C17.4801 18.5659 17.0052 18.5659 16.7123 18.273L12 13.5607L7.28769 18.273C6.99479 18.5659 6.51992 18.5659 6.22703 18.273C5.93413 17.9801 5.93413 17.5052 6.22703 17.2123L10.9393 12.5L6.22703 7.78769C5.93413 7.4948 5.93413 7.01992 6.22703 6.72703Z" fill="#FCFCFC"/>
</svg>
