<svg width="20" height="21" viewBox="0 0 20 21" fill="none" xmlns="http://www.w3.org/2000/svg">
<path fill-rule="evenodd" clip-rule="evenodd" d="M4.375 17.1667C4.375 16.8215 4.65482 16.5417 5 16.5417L15 16.5417C15.3452 16.5417 15.625 16.8215 15.625 17.1667C15.625 17.5118 15.3452 17.7917 15 17.7917L5 17.7917C4.65482 17.7917 4.375 17.5118 4.375 17.1667Z" fill="#AB5CFA"/>
<path fill-rule="evenodd" clip-rule="evenodd" d="M9.55805 3.39139C9.80213 3.14731 10.1979 3.14731 10.4419 3.39139L13.3586 6.30805C13.6027 6.55213 13.6027 6.94786 13.3586 7.19194C13.1145 7.43601 12.7188 7.43601 12.4747 7.19194L10.625 5.34221V13.8333C10.625 14.1785 10.3452 14.4583 9.99999 14.4583C9.65482 14.4583 9.37499 14.1785 9.37499 13.8333V5.34221L7.52527 7.19194C7.28119 7.43601 6.88546 7.43601 6.64139 7.19194C6.39731 6.94786 6.39731 6.55213 6.64139 6.30805L9.55805 3.39139Z" fill="#AB5CFA"/>
</svg>
